<?xml version="1.0" standalone="no"?>
<!DOCTYPE svg PUBLIC "-//W3C//DTD SVG 20010904//EN"
 "http://www.w3.org/TR/2001/REC-SVG-20010904/DTD/svg10.dtd">
<svg version="1.0" xmlns="http://www.w3.org/2000/svg"
 width="974.000000pt" height="159.000000pt" viewBox="0 0 974.000000 159.000000"
 preserveAspectRatio="xMidYMid meet">

<g transform="translate(0.000000,159.000000) scale(0.100000,-0.100000)"
fill="#000000" stroke="none">
<path d="M2245 1020 c-63 -25 -131 -90 -161 -155 -13 -27 -50 -160 -84 -295
-33 -135 -63 -253 -66 -262 -5 -16 2 -18 60 -18 75 0 62 -22 112 183 l28 117
211 0 212 0 11 51 c7 28 12 55 12 60 0 5 -87 9 -206 9 l-206 0 7 38 c12 68 41
118 81 143 38 23 47 24 252 27 140 2 212 0 212 -7 0 -5 -22 -101 -50 -212 -27
-111 -50 -218 -50 -238 0 -56 38 -121 85 -145 37 -19 58 -21 244 -21 l205 0
13 50 c7 28 13 56 13 63 0 9 -42 12 -175 12 -280 0 -277 -5 -195 320 28 110
50 210 50 223 0 13 -9 36 -21 51 l-20 26 -262 -1 c-235 0 -267 -2 -312 -19z"/>
<path d="M4672 1007 c-78 -29 -97 -56 -229 -326 -68 -141 -132 -264 -140 -273
-19 -21 -76 -24 -92 -5 -8 11 -1 88 29 308 22 162 40 295 40 297 0 1 -32 2
-70 2 -48 0 -72 -4 -75 -12 -8 -24 -67 -553 -67 -600 0 -28 7 -59 17 -74 34
-52 136 -69 228 -38 77 26 115 80 244 349 63 132 119 245 124 251 14 17 59 23
86 13 l23 -8 -6 -268 c-5 -258 -5 -269 15 -300 25 -40 83 -57 163 -50 75 7
135 41 173 97 17 25 70 149 120 277 49 128 91 230 94 227 2 -2 21 -117 42
-254 22 -147 44 -260 52 -274 9 -14 32 -26 56 -32 l41 -9 -100 -147 c-55 -80
-100 -149 -100 -152 0 -3 31 -6 68 -6 l68 0 181 268 c100 147 254 374 343 505
l162 238 -73 -3 -72 -3 -194 -285 c-174 -255 -197 -285 -224 -288 -17 -2 -31
2 -34 10 -3 7 -24 137 -48 288 l-43 275 -111 3 -111 3 -30 -78 c-17 -43 -67
-175 -112 -293 -46 -118 -89 -223 -98 -232 -17 -20 -72 -24 -90 -6 -8 8 -10
79 -6 267 7 282 4 299 -48 331 -38 23 -141 26 -196 7z"/>
<path d="M3550 994 c-153 -41 -253 -159 -300 -356 -42 -174 -13 -274 94 -324
47 -22 64 -24 202 -24 174 0 223 11 304 67 70 49 132 140 164 243 69 218 30
351 -116 395 -68 20 -272 19 -348 -1z m300 -133 c52 -27 68 -79 52 -172 -22
-128 -74 -217 -146 -250 -33 -15 -66 -19 -169 -19 -144 0 -176 10 -203 62 -43
84 30 310 117 362 50 29 77 34 199 35 94 1 122 -2 150 -18z"/>
<path d="M1126 689 c-163 -165 -296 -304 -296 -308 0 -4 85 -91 189 -194 l188
-187 58 0 58 0 81 80 81 79 -112 113 -113 113 195 195 195 195 -107 107 c-59
60 -111 108 -114 108 -4 0 -140 -135 -303 -301z"/>
</g>
</svg>
